<svg width="30" height="30" viewBox="0 0 30 30" fill="none" xmlns="http://www.w3.org/2000/svg">
<g opacity="0.5">
<path opacity="0.4" d="M14.9999 2.49975C21.8936 2.49975 27.4999 8.10725 27.4999 14.9998C27.4999 21.8923 21.8936 27.4998 14.9999 27.4998C8.10738 27.4998 2.49988 21.8923 2.49988 14.9998C2.49988 8.10725 8.10738 2.49975 14.9999 2.49975Z" fill="#509FEF" fill-opacity="0.5"/>
<path d="M13.1969 9.72388C13.4356 9.72388 13.6756 9.81512 13.8581 9.99762L18.2169 14.3351C18.3931 14.5114 18.4919 14.7501 18.4919 15.0001C18.4919 15.2489 18.3931 15.4876 18.2169 15.6639L13.8581 20.0039C13.4919 20.3689 12.8994 20.3689 12.5331 20.0014C12.1681 19.6339 12.1694 19.0401 12.5356 18.6751L16.2269 15.0001L12.5356 11.3251C12.1694 10.9601 12.1681 10.3676 12.5331 10.0001C12.7156 9.81513 12.9569 9.72388 13.1969 9.72388Z" fill="#990D81"/>
</g>
</svg>
