<svg width="26" height="26" viewBox="0 0 26 26" fill="none" xmlns="http://www.w3.org/2000/svg">
<path d="M13 8.45001V2.60001H7.15001C6.63284 2.60001 6.13685 2.80545 5.77115 3.17115C5.40546 3.53684 5.20001 4.03283 5.20001 4.55001V21.45C5.20001 21.9672 5.40546 22.4632 5.77115 22.8289C6.13685 23.1946 6.63284 23.4 7.15001 23.4H10.6873C10.4143 22.893 10.3168 22.282 10.4741 21.6489L10.9616 19.7015C11.1436 18.9709 11.5206 18.304 12.0536 17.771L18.3326 11.492C18.9901 10.8338 19.8705 10.446 20.8 10.4052V10.4H14.95C14.4328 10.4 13.9368 10.1946 13.5712 9.82887C13.2055 9.46317 13 8.96718 13 8.45001ZM14.3 8.45001V2.92501L20.475 9.10001H14.95C14.7776 9.10001 14.6123 9.03152 14.4904 8.90963C14.3685 8.78773 14.3 8.6224 14.3 8.45001ZM22.6902 12.4124C22.4645 12.1866 22.1964 12.0075 21.9014 11.8852C21.6064 11.763 21.2903 11.7001 20.971 11.7001C20.6517 11.7001 20.3355 11.763 20.0405 11.8852C19.7455 12.0075 19.4775 12.1866 19.2517 12.4124L12.9727 18.6914C12.6072 19.0573 12.348 19.5156 12.2226 20.0174L11.7351 21.9648C11.687 22.1585 11.6899 22.3613 11.7433 22.5536C11.7968 22.7458 11.8991 22.921 12.0403 23.062C12.1815 23.2031 12.3567 23.3052 12.549 23.3585C12.7413 23.4118 12.9442 23.4145 13.1378 23.3662L15.0852 22.88C15.587 22.7539 16.0459 22.4952 16.4112 22.1286L22.6902 15.8496C23.1459 15.3937 23.4019 14.7756 23.4019 14.131C23.4019 13.4865 23.1459 12.8683 22.6902 12.4124Z" fill="white"/>
</svg>
