<svg width="20" height="20" viewBox="0 0 20 20" fill="none" xmlns="http://www.w3.org/2000/svg">
<g clip-path="url(#clip0_2_219)">
<path d="M0 3.5C0 2.83696 0.263392 2.20107 0.732233 1.73223C1.20107 1.26339 1.83696 1 2.5 1L17.5 1C18.163 1 18.7989 1.26339 19.2678 1.73223C19.7366 2.20107 20 2.83696 20 3.5V13.5C20 14.163 19.7366 14.7989 19.2678 15.2678C18.7989 15.7366 18.163 16 17.5 16H5.5175C5.18601 16.0001 4.86812 16.1318 4.63375 16.3663L1.0675 19.9325C0.980163 20.0201 0.868814 20.0797 0.747545 20.104C0.626276 20.1282 0.50054 20.116 0.386249 20.0687C0.271959 20.0215 0.174252 19.9414 0.105497 19.8386C0.0367407 19.7358 2.62686e-05 19.6149 0 19.4913L0 3.5ZM6.25 8.5C6.25 8.16848 6.1183 7.85054 5.88388 7.61612C5.64946 7.3817 5.33152 7.25 5 7.25C4.66848 7.25 4.35054 7.3817 4.11612 7.61612C3.8817 7.85054 3.75 8.16848 3.75 8.5C3.75 8.83152 3.8817 9.14946 4.11612 9.38388C4.35054 9.6183 4.66848 9.75 5 9.75C5.33152 9.75 5.64946 9.6183 5.88388 9.38388C6.1183 9.14946 6.25 8.83152 6.25 8.5ZM11.25 8.5C11.25 8.16848 11.1183 7.85054 10.8839 7.61612C10.6495 7.3817 10.3315 7.25 10 7.25C9.66848 7.25 9.35054 7.3817 9.11612 7.61612C8.8817 7.85054 8.75 8.16848 8.75 8.5C8.75 8.83152 8.8817 9.14946 9.11612 9.38388C9.35054 9.6183 9.66848 9.75 10 9.75C10.3315 9.75 10.6495 9.6183 10.8839 9.38388C11.1183 9.14946 11.25 8.83152 11.25 8.5ZM15 9.75C15.3315 9.75 15.6495 9.6183 15.8839 9.38388C16.1183 9.14946 16.25 8.83152 16.25 8.5C16.25 8.16848 16.1183 7.85054 15.8839 7.61612C15.6495 7.3817 15.3315 7.25 15 7.25C14.6685 7.25 14.3505 7.3817 14.1161 7.61612C13.8817 7.85054 13.75 8.16848 13.75 8.5C13.75 8.83152 13.8817 9.14946 14.1161 9.38388C14.3505 9.6183 14.6685 9.75 15 9.75Z" fill="white"/>
</g>
<defs>
<clipPath id="clip0_2_219">
<rect width="20" height="20" fill="white"/>
</clipPath>
</defs>
</svg>
