<svg width="40" height="40" viewBox="0 0 40 40" fill="none" xmlns="http://www.w3.org/2000/svg">
<circle cx="20" cy="20" r="20" fill="#FAFAFA"/>
<path d="M27.7695 19.6453C27.039 18.7923 26.7071 18.0531 26.7071 16.7972V16.3701C26.7071 14.7335 26.3304 13.6791 25.5115 12.6246C24.2493 10.987 22.1244 10 20.0442 10H19.9558C17.9194 10 15.8611 10.9417 14.577 12.5128C13.7133 13.5884 13.2929 14.6882 13.2929 16.3701V16.7972C13.2929 18.0531 12.9828 18.7923 12.2305 19.6453C11.6769 20.2738 11.5 21.0815 11.5 21.9557C11.5 22.8309 11.7872 23.6598 12.3637 24.3336C13.116 25.1413 14.1785 25.6569 15.2638 25.7466C16.835 25.9258 18.4063 25.9933 20.0005 25.9933C21.5937 25.9933 23.165 25.8805 24.7372 25.7466C25.8215 25.6569 26.884 25.1413 27.6363 24.3336C28.2118 23.6598 28.5 22.8309 28.5 21.9557C28.5 21.0815 28.3231 20.2738 27.7695 19.6453Z" fill="#D6D7E3"/>
<path opacity="0.4" d="M22.0087 27.2284C21.5088 27.1216 18.4626 27.1216 17.9627 27.2284C17.5353 27.3271 17.0732 27.5567 17.0732 28.0602C17.098 28.5406 17.3793 28.9647 17.7689 29.2336L17.7679 29.2346C18.2718 29.6273 18.8631 29.8771 19.4823 29.9668C19.8123 30.0121 20.1482 30.0101 20.4901 29.9668C21.1083 29.8771 21.6996 29.6273 22.2035 29.2346L22.2025 29.2336C22.5921 28.9647 22.8734 28.5406 22.8982 28.0602C22.8982 27.5567 22.4361 27.3271 22.0087 27.2284Z" fill="#D6D7E3"/>
<circle cx="25.5" cy="12.5" r="4" fill="#F26464" stroke="white"/>
</svg>
